<svg version="1.1" id="Layer_1" xmlns="http://www.w3.org/2000/svg" xmlns:xlink="http://www.w3.org/1999/xlink" x="0px" y="0px"
	 width="100%" viewBox="0 0 876 286" enable-background="new 0 0 876 286" xml:space="preserve">
<path fill="#FFFFFF" opacity="1.000000" stroke="none" 
	d="
M619.000000,287.000000 
	C412.666656,287.000000 206.833328,287.000000 1.000000,287.000000 
	C1.000000,191.666672 1.000000,96.333336 1.000000,1.000000 
	C293.000000,1.000000 585.000000,1.000000 877.000000,1.000000 
	C877.000000,96.333336 877.000000,191.666672 877.000000,287.000000 
	C791.166687,287.000000 705.333313,287.000000 619.000000,287.000000 
M158.345474,138.352325 
	C149.574463,123.233063 140.803452,108.113800 131.725403,92.465263 
	C112.687790,125.382805 94.157455,157.423233 75.225693,190.157761 
	C92.279121,190.157761 108.256256,190.042160 124.229301,190.246155 
	C127.828674,190.292130 129.853271,189.287491 131.684296,186.074265 
	C140.573517,170.474747 149.758606,155.043839 159.266159,140.157211 
	C168.199646,155.529373 177.233566,170.844788 185.981201,186.321991 
	C187.713684,189.387314 189.675644,190.272186 193.018509,190.234314 
	C207.823318,190.066559 222.631073,190.166214 237.437729,190.147018 
	C238.821838,190.145218 240.205734,189.988449 242.158417,189.868774 
	C223.234665,157.170319 204.660690,125.076218 185.776642,92.446388 
	C176.483582,108.501122 167.663086,123.739464 158.345474,138.352325 
M419.391357,176.223450 
	C418.327362,181.133774 420.857178,183.293686 425.247742,184.643646 
	C435.323975,187.741730 445.373718,188.632065 455.685699,185.863647 
	C474.100159,180.920013 484.881805,162.706009 480.865387,143.073959 
	C477.031799,124.335587 460.238861,112.558990 441.398285,115.415825 
	C438.528076,115.851036 435.671631,116.377075 432.230408,116.958908 
	C432.230408,109.873451 432.230408,103.302612 432.230408,96.732895 
	C427.765564,96.732895 423.835449,96.732895 419.391846,96.732895 
	C419.391846,123.101501 419.391846,149.195206 419.391357,176.223450 
M553.223572,134.995636 
	C537.273987,134.995636 521.324463,134.995636 504.919617,134.995636 
	C504.919617,122.813255 504.919617,111.070343 504.919617,99.090202 
	C500.734833,99.090202 497.009979,99.090202 493.228088,99.090202 
	C493.228088,128.229965 493.228088,157.108566 493.228088,185.799652 
	C497.328339,185.799652 501.059631,185.799652 505.118042,185.799652 
	C505.118042,172.830048 505.118042,160.224670 505.118042,147.545013 
	C522.168030,147.545013 538.870483,147.545013 555.938965,147.545013 
	C555.938965,160.522430 555.938965,173.127014 555.938965,185.919693 
	C560.042297,185.919693 563.774048,185.919693 567.594971,185.919693 
	C567.594971,156.783936 567.594971,127.901535 567.594971,99.196442 
	C563.502747,99.196442 559.760071,99.196442 555.844238,99.196442 
	C555.844238,109.883347 555.911255,120.204834 555.769653,130.523468 
	C555.749207,132.016037 554.727722,133.494888 553.223572,134.995636 
M649.275085,135.267838 
	C636.692444,112.192108 610.938843,107.170593 591.266846,123.957245 
	C579.804077,133.738754 575.966614,150.550186 581.904846,164.971466 
	C587.460083,178.462601 603.131958,188.664520 617.048462,187.733261 
	C646.265686,185.778152 659.815125,157.543900 649.275085,135.267838 
M356.270264,184.322006 
	C362.744568,185.295380 369.319885,187.514709 375.673553,186.999741 
	C392.250977,185.656158 405.235809,172.888138 407.803284,156.939346 
	C410.414307,140.720352 401.527435,124.336250 386.294098,117.284279 
	C371.774933,110.562920 354.044159,114.720009 343.244080,127.276817 
	C327.140228,146.000107 334.024902,174.327148 356.270264,184.322006 
M685.233948,114.101250 
	C679.344482,115.506859 672.977356,115.932747 667.665466,118.522835 
	C656.745728,123.847328 654.577576,140.468933 663.979858,148.028625 
	C668.799255,151.903549 675.391541,153.747437 681.395142,155.922424 
	C686.516174,157.777664 692.114929,158.361923 697.149170,160.386597 
	C699.263916,161.237106 701.764221,164.357895 701.750916,166.431595 
	C701.735168,168.879349 699.776855,172.232910 697.640930,173.596573 
	C685.695984,181.222534 670.571411,175.147446 667.255676,161.779907 
	C663.645447,161.779907 660.049561,161.779907 656.311951,161.779907 
	C655.713928,168.984253 657.758911,174.893036 662.834106,179.622894 
	C673.164124,189.250015 692.970642,190.949661 704.767212,183.094986 
	C711.573547,178.562973 714.556946,171.955170 713.925293,163.824478 
	C713.311890,155.929260 707.859680,151.901703 701.328247,149.172638 
	C697.680603,147.648499 693.676270,146.991425 689.856445,145.862991 
	C684.774597,144.361740 679.502686,143.242355 674.740173,141.035645 
	C672.463196,139.980576 669.672302,136.694397 669.818237,134.607819 
	C669.994934,132.080139 672.516785,128.813568 674.917847,127.497337 
	C686.632324,121.075523 697.571716,126.704391 701.414978,140.592010 
	C704.728455,140.592010 708.010620,140.592010 711.564087,140.592010 
	C711.998108,131.326996 709.043396,123.804253 701.054138,119.379990 
	C696.508972,116.862999 691.126587,115.857750 685.233948,114.101250 
M322.986786,99.684639 
	C319.175690,99.305725 315.364624,98.926811 311.071594,98.499985 
	C311.071594,101.123970 311.072510,102.923141 311.071442,104.722313 
	C311.061035,122.384926 311.183136,140.049011 310.987885,157.709595 
	C310.877716,167.676361 303.574463,175.289993 294.046478,176.021683 
	C284.117340,176.784149 275.890869,170.381592 274.015259,160.433807 
	C273.842804,159.519180 273.657440,158.606979 273.483459,157.721100 
	C269.511536,157.721100 265.904053,157.721100 262.312286,157.721100 
	C261.483978,174.858658 278.060699,189.621857 295.606659,187.636658 
	C312.484558,185.727020 322.644684,174.886795 322.935059,157.644333 
	C323.254883,138.653748 323.045746,119.654251 322.986786,99.684639 
M751.566040,186.535950 
	C751.809021,182.450150 752.052063,178.364365 752.291199,174.343674 
	C745.843750,172.968719 739.273438,171.558929 738.841675,164.466492 
	C738.117554,152.571121 738.643555,140.599655 738.643555,128.038559 
	C743.357849,128.038559 747.744751,128.038559 751.942200,128.038559 
	C751.942200,123.982368 751.942200,120.554535 751.942200,116.697433 
	C747.369263,116.697433 743.107178,116.697433 738.270630,116.697433 
	C738.270630,109.199333 738.270630,102.138290 738.270630,95.143768 
	C733.930298,95.143768 730.181580,95.143768 725.890564,95.143768 
	C725.890564,102.499657 725.890564,109.556702 725.890564,116.990036 
	C721.577637,116.990036 717.815002,116.990036 713.919617,116.990036 
	C713.919617,120.818840 713.919617,124.239563 713.919617,128.247528 
	C718.001343,128.247528 721.889465,128.247528 725.998779,128.247528 
	C725.998779,138.484695 725.993469,148.134491 725.999939,157.784286 
	C726.011292,174.809738 733.817993,183.892181 751.566040,186.535950 
z"/>
<path fill="#029EA1" opacity="1.000000" stroke="none" 
	d="
M158.842575,138.977814 
	C167.663086,123.739464 176.483582,108.501122 185.776642,92.446388 
	C204.660690,125.076218 223.234665,157.170319 242.158417,189.868774 
	C240.205734,189.988449 238.821838,190.145218 237.437729,190.147018 
	C222.631073,190.166214 207.823318,190.066559 193.018509,190.234314 
	C189.675644,190.272186 187.713684,189.387314 185.981201,186.321991 
	C177.233566,170.844788 168.199646,155.529373 159.057251,139.756409 
	C158.848328,139.355621 158.842575,138.977814 158.842575,138.977814 
z"/>
<path fill="#E30280" opacity="1.000000" stroke="none" 
	d="
M158.594025,138.665070 
	C158.842575,138.977814 158.848328,139.355621 158.843613,139.454407 
	C149.758606,155.043839 140.573517,170.474747 131.684296,186.074265 
	C129.853271,189.287491 127.828674,190.292130 124.229301,190.246155 
	C108.256256,190.042160 92.279121,190.157761 75.225693,190.157761 
	C94.157455,157.423233 112.687790,125.382805 131.725403,92.465263 
	C140.803452,108.113800 149.574463,123.233063 158.594025,138.665070 
z"/>
<path fill="#393939" opacity="1.000000" stroke="none" 
	d="
M419.391602,175.756180 
	C419.391846,149.195206 419.391846,123.101501 419.391846,96.732895 
	C423.835449,96.732895 427.765564,96.732895 432.230408,96.732895 
	C432.230408,103.302612 432.230408,109.873451 432.230408,116.958908 
	C435.671631,116.377075 438.528076,115.851036 441.398285,115.415825 
	C460.238861,112.558990 477.031799,124.335587 480.865387,143.073959 
	C484.881805,162.706009 474.100159,180.920013 455.685699,185.863647 
	C445.373718,188.632065 435.323975,187.741730 425.247742,184.643646 
	C420.857178,183.293686 418.327362,181.133774 419.391602,175.756180 
M458.404297,171.158661 
	C469.752319,163.970398 473.071381,150.225204 466.261139,138.621323 
	C461.129883,129.878235 442.562164,124.948929 434.110107,130.254044 
	C433.149323,130.857101 432.498962,132.682831 432.483887,133.950867 
	C432.345886,145.575790 432.463348,157.203918 432.303955,168.828323 
	C432.265594,171.624313 433.496490,172.543533 435.926300,173.117264 
	C443.395996,174.881027 450.708221,175.085342 458.404297,171.158661 
z"/>
<path fill="#343434" opacity="1.000000" stroke="none" 
	d="
M553.696533,134.987854 
	C554.727722,133.494888 555.749207,132.016037 555.769653,130.523468 
	C555.911255,120.204834 555.844238,109.883347 555.844238,99.196442 
	C559.760071,99.196442 563.502747,99.196442 567.594971,99.196442 
	C567.594971,127.901535 567.594971,156.783936 567.594971,185.919693 
	C563.774048,185.919693 560.042297,185.919693 555.938965,185.919693 
	C555.938965,173.127014 555.938965,160.522430 555.938965,147.545013 
	C538.870483,147.545013 522.168030,147.545013 505.118042,147.545013 
	C505.118042,160.224670 505.118042,172.830048 505.118042,185.799652 
	C501.059631,185.799652 497.328339,185.799652 493.228088,185.799652 
	C493.228088,157.108566 493.228088,128.229965 493.228088,99.090202 
	C497.009979,99.090202 500.734833,99.090202 504.919617,99.090202 
	C504.919617,111.070343 504.919617,122.813255 504.919617,134.995636 
	C521.324463,134.995636 537.273987,134.995636 553.696533,134.987854 
z"/>
<path fill="#373737" opacity="1.000000" stroke="none" 
	d="
M649.488403,135.580811 
	C659.815125,157.543900 646.265686,185.778152 617.048462,187.733261 
	C603.131958,188.664520 587.460083,178.462601 581.904846,164.971466 
	C575.966614,150.550186 579.804077,133.738754 591.266846,123.957245 
	C610.938843,107.170593 636.692444,112.192108 649.488403,135.580811 
M618.976685,174.780670 
	C633.693359,172.720291 642.204041,159.672836 639.763916,146.415344 
	C637.421143,133.687317 625.052429,125.603058 611.662415,127.815094 
	C599.269531,129.862411 590.851929,141.035126 592.066467,153.824829 
	C593.241760,166.201630 604.304810,175.131302 618.976685,174.780670 
z"/>
<path fill="#373737" opacity="1.000000" stroke="none" 
	d="
M355.927582,184.156158 
	C334.024902,174.327148 327.140228,146.000107 343.244080,127.276817 
	C354.044159,114.720009 371.774933,110.562920 386.294098,117.284279 
	C401.527435,124.336250 410.414307,140.720352 407.803284,156.939346 
	C405.235809,172.888138 392.250977,185.656158 375.673553,186.999741 
	C369.319885,187.514709 362.744568,185.295380 355.927582,184.156158 
M376.532349,174.332809 
	C377.485077,174.038086 378.453430,173.785889 379.388062,173.442032 
	C388.903473,169.941269 395.001831,161.879913 395.311798,152.019226 
	C395.631104,141.861954 390.981110,134.413086 382.098022,129.758514 
	C373.701080,125.358658 362.764587,126.934990 355.476715,133.216736 
	C347.576691,140.026108 344.983612,150.655670 348.958466,159.935928 
	C353.517487,170.579987 363.421844,175.988251 376.532349,174.332809 
z"/>
<path fill="#383838" opacity="1.000000" stroke="none" 
	d="
M685.677612,114.136475 
	C691.126587,115.857750 696.508972,116.862999 701.054138,119.379990 
	C709.043396,123.804253 711.998108,131.326996 711.564087,140.592010 
	C708.010620,140.592010 704.728455,140.592010 701.414978,140.592010 
	C697.571716,126.704391 686.632324,121.075523 674.917847,127.497337 
	C672.516785,128.813568 669.994934,132.080139 669.818237,134.607819 
	C669.672302,136.694397 672.463196,139.980576 674.740173,141.035645 
	C679.502686,143.242355 684.774597,144.361740 689.856445,145.862991 
	C693.676270,146.991425 697.680603,147.648499 701.328247,149.172638 
	C707.859680,151.901703 713.311890,155.929260 713.925293,163.824478 
	C714.556946,171.955170 711.573547,178.562973 704.767212,183.094986 
	C692.970642,190.949661 673.164124,189.250015 662.834106,179.622894 
	C657.758911,174.893036 655.713928,168.984253 656.311951,161.779907 
	C660.049561,161.779907 663.645447,161.779907 667.255676,161.779907 
	C670.571411,175.147446 685.695984,181.222534 697.640930,173.596573 
	C699.776855,172.232910 701.735168,168.879349 701.750916,166.431595 
	C701.764221,164.357895 699.263916,161.237106 697.149170,160.386597 
	C692.114929,158.361923 686.516174,157.777664 681.395142,155.922424 
	C675.391541,153.747437 668.799255,151.903549 663.979858,148.028625 
	C654.577576,140.468933 656.745728,123.847328 667.665466,118.522835 
	C672.977356,115.932747 679.344482,115.506859 685.677612,114.136475 
z"/>
<path fill="#363636" opacity="1.000000" stroke="none" 
	d="
M323.026917,100.171638 
	C323.045746,119.654251 323.254883,138.653748 322.935059,157.644333 
	C322.644684,174.886795 312.484558,185.727020 295.606659,187.636658 
	C278.060699,189.621857 261.483978,174.858658 262.312286,157.721100 
	C265.904053,157.721100 269.511536,157.721100 273.483459,157.721100 
	C273.657440,158.606979 273.842804,159.519180 274.015259,160.433807 
	C275.890869,170.381592 284.117340,176.784149 294.046478,176.021683 
	C303.574463,175.289993 310.877716,167.676361 310.987885,157.709595 
	C311.183136,140.049011 311.061035,122.384926 311.071442,104.722313 
	C311.072510,102.923141 311.071594,101.123970 311.071594,98.499985 
	C315.364624,98.926811 319.175690,99.305725 323.026917,100.171638 
z"/>
<path fill="#353535" opacity="1.000000" stroke="none" 
	d="
M751.143677,186.547073 
	C733.817993,183.892181 726.011292,174.809738 725.999939,157.784286 
	C725.993469,148.134491 725.998779,138.484695 725.998779,128.247528 
	C721.889465,128.247528 718.001343,128.247528 713.919617,128.247528 
	C713.919617,124.239563 713.919617,120.818840 713.919617,116.990036 
	C717.815002,116.990036 721.577637,116.990036 725.890564,116.990036 
	C725.890564,109.556702 725.890564,102.499657 725.890564,95.143768 
	C730.181580,95.143768 733.930298,95.143768 738.270630,95.143768 
	C738.270630,102.138290 738.270630,109.199333 738.270630,116.697433 
	C743.107178,116.697433 747.369263,116.697433 751.942200,116.697433 
	C751.942200,120.554535 751.942200,123.982368 751.942200,128.038559 
	C747.744751,128.038559 743.357849,128.038559 738.643555,128.038559 
	C738.643555,140.599655 738.117554,152.571121 738.841675,164.466492 
	C739.273438,171.558929 745.843750,172.968719 752.291199,174.343674 
	C752.052063,178.364365 751.809021,182.450150 751.143677,186.547073 
z"/>
<path fill="#FEFEFE" opacity="1.000000" stroke="none" 
	d="
M458.099731,171.386993 
	C450.708221,175.085342 443.395996,174.881027 435.926300,173.117264 
	C433.496490,172.543533 432.265594,171.624313 432.303955,168.828323 
	C432.463348,157.203918 432.345886,145.575790 432.483887,133.950867 
	C432.498962,132.682831 433.149323,130.857101 434.110107,130.254044 
	C442.562164,124.948929 461.129883,129.878235 466.261139,138.621323 
	C473.071381,150.225204 469.752319,163.970398 458.099731,171.386993 
z"/>
<path fill="#FDFDFD" opacity="1.000000" stroke="none" 
	d="
M618.552612,174.820923 
	C604.304810,175.131302 593.241760,166.201630 592.066467,153.824829 
	C590.851929,141.035126 599.269531,129.862411 611.662415,127.815094 
	C625.052429,125.603058 637.421143,133.687317 639.763916,146.415344 
	C642.204041,159.672836 633.693359,172.720291 618.552612,174.820923 
z"/>
<path fill="#FDFDFD" opacity="1.000000" stroke="none" 
	d="
M376.129639,174.442841 
	C363.421844,175.988251 353.517487,170.579987 348.958466,159.935928 
	C344.983612,150.655670 347.576691,140.026108 355.476715,133.216736 
	C362.764587,126.934990 373.701080,125.358658 382.098022,129.758514 
	C390.981110,134.413086 395.631104,141.861954 395.311798,152.019226 
	C395.001831,161.879913 388.903473,169.941269 379.388062,173.442032 
	C378.453430,173.785889 377.485077,174.038086 376.129639,174.442841 
z"/>
</svg>